<svg width="36" height="35" viewBox="0 0 36 35" fill="none" xmlns="http://www.w3.org/2000/svg">
<path d="M35.025 17.4943C35.025 27.1561 27.1844 34.9885 17.5125 34.9885C7.84062 34.9885 0 27.1561 0 17.4943C0 7.83245 7.84062 0 17.5125 0C27.1844 0 35.025 7.83245 35.025 17.4943Z" fill="white"/>
<path d="M12 26C11.45 26 10.9792 25.8042 10.5875 25.4125C10.1958 25.0208 10 24.55 10 24L10.5875 12C10.5875 11.45 10.5969 10.9792 10.9885 10.5875C11.3802 10.1958 11.9213 10 12.4713 10H14C14 8.9 14.3917 7.95833 15.175 7.175C15.9583 6.39167 16.9 6 18 6C19.1 6 20.0417 6.39167 20.825 7.175C21.6083 7.95833 22 8.9 22 10H23.3452C23.8952 10 24.4364 10.1958 24.828 10.5875C25.2197 10.9792 25.4125 11.45 25.4125 12L26 24C26 24.55 25.8042 25.0208 25.4125 25.4125C25.0208 25.8042 24.55 26 24 26H12ZM12 24H24L23.3452 12H22V14C22 14.2833 21.9042 14.5208 21.7125 14.7125C21.5208 14.9042 21.2833 15 21 15C20.7167 15 20.4792 14.9042 20.2875 14.7125C20.0958 14.5208 20 14.2833 20 14V12H16V14C16 14.2833 15.9042 14.5208 15.7125 14.7125C15.5208 14.9042 15.2833 15 15 15C14.7167 15 14.4792 14.9042 14.2875 14.7125C14.0958 14.5208 14 14.2833 14 14V12H12.4713L12 24ZM16 10H20C20 9.45 19.8042 8.97917 19.4125 8.5875C19.0208 8.19583 18.55 8 18 8C17.45 8 16.9792 8.19583 16.5875 8.5875C16.1958 8.97917 16 9.45 16 10Z" fill="#424242"/>
</svg>
