<svg width="11" height="11" viewBox="0 0 11 11" fill="none" xmlns="http://www.w3.org/2000/svg">
<path fill-rule="evenodd" clip-rule="evenodd" d="M1.70669 2.54438L5.72364 5.5259L9.74059 2.54438C9.69561 2.37129 9.60955 2.2208 9.49457 2.11422C9.3796 2.00763 9.24153 1.95034 9.09991 1.95044H2.34737C2.20575 1.95034 2.06769 2.00763 1.95271 2.11422C1.83774 2.2208 1.75167 2.37129 1.70669 2.54438ZM9.77516 3.7239L5.92568 6.58078C5.86422 6.62636 5.79455 6.65034 5.72364 6.65034C5.65274 6.65034 5.58307 6.62636 5.52161 6.58078L1.67212 3.7239V8.73928C1.67212 9.21973 1.97463 9.60965 2.34737 9.60965H9.09991C9.47265 9.60965 9.77516 9.21973 9.77516 8.73928V3.7239ZM0.861816 2.82081C0.861816 2.31297 1.01833 1.82593 1.29693 1.46684C1.57552 1.10774 1.95338 0.906006 2.34737 0.906006H9.09991C9.49391 0.906006 9.87176 1.10774 10.1504 1.46684C10.429 1.82593 10.5855 2.31297 10.5855 2.82081V8.73928C10.5855 9.24712 10.429 9.73416 10.1504 10.0933C9.87176 10.4523 9.49391 10.6541 9.09991 10.6541H2.34737C1.95338 10.6541 1.57552 10.4523 1.29693 10.0933C1.01833 9.73416 0.861816 9.24712 0.861816 8.73928V2.82081Z" fill="#FFFCFC"/>
</svg>
