<svg width="36" height="40" viewBox="0 0 36 40" fill="none" xmlns="http://www.w3.org/2000/svg">
<path d="M22.3013 35.0469C22.2301 37.4652 20.3243 39.3714 17.997 39.3714C15.6698 39.3714 13.764 37.4652 13.6215 35.0469H13.0575C11.2942 35.0469 10.3028 32.8446 11.5733 31.4566C10.1603 30.7225 10.0237 28.7423 11.2883 27.7922V26.9841C11.1458 24.7818 10.0178 23.2457 8.81855 21.6295C7.19777 19.5012 5.49981 17.157 5.49981 12.9065C5.49981 9.38407 6.9128 6.08985 9.16883 3.8135C13.8946 -1.17101 21.5176 -1.24504 26.3859 3.44954C27.6564 4.62164 28.6419 6.08985 29.3484 7.62592C30.4052 10.0442 30.6902 12.9066 30.1974 15.5469C29.6334 18.1872 28.3629 19.9453 27.1636 21.6356C25.9644 23.2457 24.8364 24.788 24.6939 26.9903V27.8724C24.7651 27.9465 24.8364 28.0205 24.9076 28.0945C25.8931 29.1186 25.6141 30.8089 24.4148 31.4689C25.6141 32.8631 24.6998 35.0593 22.9306 35.0593H22.3013V35.0469ZM14.5417 35.0469C14.613 36.9532 16.1625 38.4954 17.997 38.4954C19.8315 38.4954 21.387 36.9532 21.4523 35.0469H14.5417ZM12.9863 31.6725C11.502 31.7466 11.502 34.1648 13.0575 34.1648H22.9365C24.4208 34.1648 24.4861 31.7466 22.9365 31.6725H12.9863ZM12.4935 27.4221H17.5755V24.7078C17.2905 24.6337 17.0115 24.4117 16.7978 24.2698C16.5128 23.9058 16.305 23.4616 16.305 23.0236C16.305 22.5116 16.5187 22.1415 16.7978 21.7775C17.0827 21.4814 17.5043 21.2655 17.997 21.2655C18.4186 21.2655 18.846 21.4876 19.125 21.7775C19.4753 22.1415 19.6178 22.5116 19.6178 23.0236C19.6178 23.4616 19.4753 23.9058 19.125 24.2698C18.9826 24.4178 18.7035 24.6337 18.4186 24.7078V27.4221H23.5006C23.5718 27.4221 23.7143 27.4221 23.8508 27.4961C23.9221 24.9299 24.4148 23.8318 26.4631 21.0434C27.6623 19.5012 28.9328 17.743 29.3544 15.1767C29.7759 12.8325 29.5681 10.3403 28.6479 8.21197C28.0126 6.66973 27.0983 5.28172 25.8931 4.17747C21.3751 -0.295023 14.2508 -0.220995 9.80408 4.39956C7.6846 6.60187 6.4141 9.60616 6.4141 12.9065C6.4141 16.867 7.96364 19.0632 9.51911 21.1174C11.7039 24.0477 12.0601 25.0779 12.1314 27.4221C12.2798 27.4221 12.351 27.4221 12.4935 27.4221ZM23.5006 28.3043H12.4935C10.944 28.3043 10.944 30.7965 12.4935 30.7965H23.5006C25.056 30.7965 25.056 28.3043 23.5006 28.3043ZM18.561 22.4376C18.4186 22.2895 18.2108 22.2155 17.997 22.2155C17.7833 22.2155 17.5755 22.2895 17.433 22.4376C17.2905 22.5856 17.1481 22.8016 17.1481 23.0236C17.1481 23.2457 17.2905 23.4616 17.433 23.6097C17.5755 23.7577 17.7833 23.8318 17.997 23.8318C18.2108 23.8318 18.4186 23.7577 18.561 23.6097C18.7035 23.4616 18.7748 23.2457 18.7748 23.0236C18.7748 22.8016 18.7035 22.5856 18.561 22.4376ZM23.079 19.5752C22.7941 20.3833 22.0935 20.9694 21.2445 20.8954C20.259 20.8954 19.4813 20.0132 19.4813 18.9891C19.5525 18.255 19.974 17.595 20.538 17.305C21.102 17.0829 20.7518 16.281 20.1878 16.4969C19.974 16.6449 19.8375 16.719 19.6237 16.8609V16.9349C19.0597 16.2008 18.846 15.1767 19.2022 14.3686C19.2735 14.2205 19.3447 14.1465 19.416 14.0046C19.8375 14.3686 20.3362 14.5907 20.8289 14.6647C20.8289 14.9608 20.9002 15.1767 20.9714 15.4728C21.1852 15.9849 21.957 15.6209 21.7492 15.1089C21.6067 14.6709 21.6779 14.1527 22.0341 13.8627C22.5269 13.4988 21.9629 12.7647 21.5414 13.1286C21.3276 13.3507 21.1199 13.5666 21.0486 13.8627C20.1996 13.6407 19.5644 13.0546 19.3566 12.3205C19.0716 11.6604 19.2141 10.8523 19.5703 10.2662C19.7128 9.97013 19.9918 9.75421 20.2768 9.60616C20.4905 9.68018 20.8408 9.75421 21.1258 9.75421C21.4108 9.75421 21.761 9.75421 22.046 9.60616C22.61 9.4581 22.331 8.64997 21.8323 8.79802C21.6186 8.87205 21.4108 8.87205 21.1258 8.87205C20.069 8.79802 19.22 7.848 19.2913 6.74376C19.3625 5.57166 20.2768 4.6895 21.3395 4.76352C22.1173 4.83755 22.7525 5.27555 23.0315 6.00965C22.8178 6.08368 22.61 6.15771 22.4675 6.23174C22.325 6.15771 22.1173 6.00965 21.9748 5.93563C21.482 5.63952 21.0545 6.52168 21.6245 6.74376C21.9095 6.89181 22.1173 7.25578 22.046 7.62592C21.9748 8.21197 22.8237 8.286 22.895 7.69995C22.9662 7.47787 22.9662 7.26195 22.895 7.03987C22.9662 6.96584 23.1087 6.89181 23.2453 6.89181C23.8805 6.66973 24.587 6.81779 25.0798 7.25578C25.7863 8.06392 25.7863 9.31005 25.0085 10.0442C24.587 10.4821 25.2223 11.1422 25.6438 10.7042C25.7863 10.5562 25.9288 10.4081 25.9941 10.1922C26.7006 10.7042 27.0508 11.4383 27.0508 12.2465C26.9796 13.5666 25.9228 14.5166 24.6523 14.5166C24.0883 14.4426 24.0883 15.3248 24.6523 15.3988C25.0738 15.3988 25.5013 15.3248 25.8516 15.1767C26.1365 15.6147 26.2019 16.0589 26.2019 16.5709C26.1306 17.817 25.2163 18.7732 24.0171 18.7732C24.0171 18.5511 23.9458 18.3352 23.8746 18.1132C24.0171 17.9651 24.1596 17.7492 24.2249 17.6011C24.4386 17.0891 23.6609 16.6449 23.4471 17.2372C23.2334 17.6011 22.9544 17.7492 22.5269 17.6752C22.0341 17.6752 21.9629 18.4833 22.4557 18.5573C22.6694 18.6313 22.8772 18.6313 23.0909 18.5573C23.1503 18.9151 23.1503 19.2112 23.079 19.5752ZM18.846 13.3445C18.7035 13.5666 18.561 13.7825 18.4245 14.0046C17.9317 15.2508 18.1395 16.6449 19.0597 17.595C18.7748 17.9589 18.6382 18.4771 18.6382 18.9151C18.567 20.4574 19.695 21.7775 21.1792 21.8454C21.957 21.8454 22.5922 21.5493 23.085 21.1113C23.5065 20.7473 23.7915 20.2291 23.934 19.6431C25.626 19.6431 26.9677 18.3229 27.039 16.5647C27.1102 15.9047 26.8965 15.3186 26.6174 14.7326C27.3239 14.1465 27.8167 13.2643 27.8879 12.3143C27.8879 11.1422 27.3239 10.0442 26.4037 9.38407C26.8252 7.69995 25.626 6.00965 23.934 5.8616C23.5837 4.76352 22.521 3.95539 21.393 3.88136C19.7722 3.80733 18.5017 5.05346 18.4304 6.66973C18.3592 7.62592 18.7154 8.50191 19.416 9.08796C19.2022 9.31005 18.9944 9.52596 18.8519 9.82207C18.2879 10.6302 18.2167 11.6543 18.5017 12.6104C18.561 12.8325 18.7035 13.1225 18.846 13.3445ZM24.1358 11.4383C24.6998 11.3643 24.6286 10.4821 24.0646 10.5562C23.9221 10.5562 23.8508 10.5562 23.7143 10.5562C23.1503 10.5562 23.079 11.4383 23.643 11.4383C23.8568 11.4383 23.9933 11.4383 24.1358 11.4383ZM12.915 19.5752C13.1288 20.3833 13.8352 20.9694 14.7495 20.8954C15.7351 20.8954 16.5128 20.0132 16.4416 18.9891C16.4416 18.255 16.02 17.595 15.3848 17.305C14.892 17.0829 15.2423 16.281 15.7351 16.4969C15.9488 16.6449 16.1566 16.719 16.2991 16.8609L16.3703 16.9349C16.9343 16.2008 17.0768 15.1767 16.7206 14.3686C16.6493 14.2205 16.5781 14.1465 16.5069 14.0046C16.1566 14.3686 15.6579 14.5907 15.1651 14.6647C15.1651 14.9608 15.0939 15.1767 15.0226 15.4728C14.8089 15.9849 13.9659 15.6209 14.1737 15.1089C14.3874 14.6709 14.2449 14.1527 13.8887 13.8627C13.4672 13.4988 14.0312 12.7647 14.4527 13.1286C14.6664 13.3507 14.803 13.5666 14.9455 13.8627C15.7232 13.6407 16.3584 13.0546 16.6375 12.3205C16.8512 11.6604 16.78 10.8523 16.4237 10.2662C16.21 9.97013 16.0022 9.75421 15.7173 9.60616C15.4323 9.68018 15.1532 9.75421 14.8683 9.75421C14.518 9.75421 14.233 9.75421 13.8827 9.60616C13.39 9.4581 13.5978 8.64997 14.1677 8.79802C14.3814 8.87205 14.5892 8.87205 14.803 8.87205C15.931 8.79802 16.7087 7.848 16.7087 6.74376C16.6375 5.57166 15.7232 4.6895 14.6605 4.76352C13.8827 4.83755 13.1763 5.27555 12.8972 6.00965H12.9685C13.1822 6.08368 13.39 6.15771 13.5325 6.23174C13.675 6.15771 13.8174 6.00965 14.0252 5.93563C14.518 5.63952 14.8742 6.52168 14.3755 6.74376C14.0252 6.89181 13.8827 7.25578 13.8827 7.62592C13.954 8.21197 13.105 8.286 13.0338 7.69995C13.0338 7.47787 13.0338 7.26195 13.105 7.03987C12.9625 6.96584 12.82 6.89181 12.6835 6.89181C12.1195 6.66973 11.413 6.81779 10.9202 7.25578C10.1425 8.06392 10.1425 9.31005 10.9202 10.0442C11.3417 10.4821 10.7777 11.1422 10.3562 10.7042C10.2137 10.5562 10.0712 10.4081 9.93469 10.1922C9.29944 10.7042 8.94917 11.4383 8.94917 12.2465C9.02041 13.5666 10.0772 14.5166 11.2764 14.5166C11.8404 14.4426 11.9117 15.3248 11.3477 15.3988C10.9262 15.3988 10.4987 15.3248 10.1484 15.1767C9.86345 15.6147 9.7269 16.0589 9.79814 16.5709C9.79814 17.817 10.7837 18.7732 11.9829 18.7732C11.9829 18.5511 12.0542 18.3352 12.1254 18.1132C11.9829 17.9651 11.8404 17.7492 11.7751 17.6011C11.4902 17.0891 12.3391 16.6449 12.5529 17.2372C12.6954 17.6011 13.0456 17.7492 13.4019 17.6752C13.9659 17.6752 14.0371 18.4833 13.4731 18.5573C13.2594 18.6313 13.0516 18.6313 12.9091 18.5573C12.7725 18.9151 12.7725 19.2112 12.915 19.5752ZM17.0768 13.3445C17.2905 13.5666 17.4271 13.7825 17.4983 14.0046C18.0623 15.2508 17.7833 16.6449 16.9343 17.595C17.1481 17.9589 17.2846 18.4771 17.2846 18.9151C17.3558 20.4574 16.2278 21.7775 14.7436 21.8454C14.0371 21.8454 13.3306 21.5493 12.8378 21.1113C12.4163 20.7473 12.1314 20.2291 11.9889 19.6431C10.3681 19.6431 8.9551 18.3229 8.88386 16.5647C8.88386 15.9047 9.02634 15.3186 9.37662 14.7326C8.59889 14.1465 8.10612 13.2643 8.10612 12.3143C8.03488 11.1422 8.59889 10.0442 9.59035 9.38407C9.16883 7.69995 10.2968 6.00965 12.0601 5.8616C12.4104 4.76352 13.4019 3.95539 14.6011 3.88136C16.1506 3.80733 17.4924 5.05346 17.5636 6.66973C17.6349 7.62592 17.2134 8.50191 16.5069 9.08796C16.7918 9.31005 16.9996 9.52596 17.1421 9.82207C17.6349 10.6302 17.7774 11.6543 17.4271 12.6104C17.3618 12.8325 17.2905 13.1225 17.0768 13.3445ZM11.787 11.4383C11.223 11.3643 11.3655 10.4821 11.9295 10.5562C12.072 10.5562 12.1432 10.5562 12.2798 10.5562C12.8438 10.5562 12.8438 11.4383 12.2798 11.4383C12.1373 11.4383 12.0007 11.4383 11.787 11.4383ZM3.81373 24.6337C3.32096 24.9299 2.8282 24.1957 3.32096 23.8996L5.71948 22.0675C6.21224 21.7035 6.70501 22.4314 6.21224 22.8016L3.81373 24.6337ZM32.6731 23.9058C33.0946 24.2019 32.6019 24.9298 32.1803 24.6399L29.7106 22.8077C29.2891 22.4438 29.7818 21.7097 30.2746 22.0736L32.6731 23.9058ZM35.4991 9.75421C36.0631 9.68018 36.2056 10.5623 35.6416 10.6364L32.679 11.1484C32.115 11.2224 31.9725 10.3403 32.5365 10.2662L35.4991 9.75421ZM35.4991 16.6449C36.0631 16.793 35.9206 17.669 35.3566 17.5271L32.3941 16.867C31.8301 16.793 32.0438 15.9108 32.6078 16.0589L35.4991 16.6449ZM32.5306 2.56737C33.0234 2.20341 33.5161 2.93134 33.0234 3.30148L30.5536 4.98561C30.0609 5.34957 29.5681 4.54761 30.0609 4.2515L32.5306 2.56737ZM0.358442 10.6302C-0.205566 10.5562 -0.0630795 9.67402 0.500928 9.74804L3.46345 10.2601C4.02746 10.3341 3.88497 11.2163 3.32096 11.1422L0.358442 10.6302ZM0.637477 17.5271C0.0734697 17.6752 -0.0690165 16.793 0.423748 16.6449L3.38627 16.0589C3.95028 15.9108 4.09276 16.793 3.52876 16.867L0.637477 17.5271ZM2.96475 3.30148C2.47199 2.93751 2.96475 2.20341 3.38627 2.56737L5.92727 4.2515C6.06976 4.39955 6.141 4.6895 5.99852 4.83755C5.85603 5.05963 5.64824 5.13366 5.43451 4.98561L2.96475 3.30148Z" fill="white"/>
</svg>
