<svg width="36" height="40" viewBox="0 0 36 40" fill="none" xmlns="http://www.w3.org/2000/svg">
<path d="M22.3013 35.0921C22.2301 37.5103 20.3243 39.4166 17.997 39.4166C15.6698 39.4166 13.764 37.5103 13.6215 35.0921H13.0575C11.2942 35.0921 10.3028 32.8898 11.5733 31.5018C10.1603 30.7677 10.0237 28.7874 11.2883 27.8374V27.0293C11.1458 24.827 10.0178 23.2909 8.81855 21.6746C7.19777 19.5463 5.49981 17.2021 5.49981 12.9517C5.49981 9.42924 6.9128 6.13502 9.16883 3.85867C13.8946 -1.12585 21.5176 -1.19988 26.3859 3.4947C27.6564 4.6668 28.6419 6.13502 29.3484 7.67109C30.4052 10.0893 30.6902 12.9517 30.1974 15.592C29.6334 18.2323 28.3629 19.9905 27.1636 21.6808C25.9644 23.2909 24.8364 24.8331 24.6939 27.0354V27.9176C24.7651 27.9916 24.8364 28.0657 24.9076 28.1397C25.8931 29.1637 25.6141 30.854 24.4148 31.5141C25.6141 32.9083 24.6998 35.1044 22.9306 35.1044H22.3013V35.0921ZM14.5417 35.0921C14.613 36.9983 16.1625 38.5406 17.997 38.5406C19.8315 38.5406 21.387 36.9983 21.4523 35.0921H14.5417ZM12.9863 31.7177C11.502 31.7917 11.502 34.2099 13.0575 34.2099H22.9365C24.4208 34.2099 24.4861 31.7917 22.9365 31.7177H12.9863ZM12.4935 27.4673H17.5755V24.7529C17.2905 24.6789 17.0115 24.4568 16.7978 24.3149C16.5128 23.951 16.305 23.5068 16.305 23.0688C16.305 22.5568 16.5187 22.1866 16.7978 21.8227C17.0827 21.5266 17.5043 21.3107 17.997 21.3107C18.4186 21.3107 18.846 21.5327 19.125 21.8227C19.4753 22.1866 19.6178 22.5568 19.6178 23.0688C19.6178 23.5068 19.4753 23.951 19.125 24.3149C18.9826 24.463 18.7035 24.6789 18.4186 24.7529V27.4673H23.5006C23.5718 27.4673 23.7143 27.4673 23.8508 27.5413C23.9221 24.975 24.4148 23.8769 26.4631 21.0886C27.6623 19.5463 28.9328 17.7882 29.3544 15.2219C29.7759 12.8777 29.5681 10.3854 28.6479 8.25714C28.0126 6.7149 27.0983 5.32688 25.8931 4.22264C21.3751 -0.249857 14.2508 -0.175829 9.80408 4.44472C7.6846 6.64704 6.4141 9.65132 6.4141 12.9517C6.4141 16.9122 7.96364 19.1083 9.51911 21.1626C11.7039 24.0929 12.0601 25.1231 12.1314 27.4673C12.2798 27.4673 12.351 27.4673 12.4935 27.4673ZM23.5006 28.3494H12.4935C10.944 28.3494 10.944 30.8417 12.4935 30.8417H23.5006C25.056 30.8417 25.056 28.3494 23.5006 28.3494ZM18.561 22.4828C18.4186 22.3347 18.2108 22.2607 17.997 22.2607C17.7833 22.2607 17.5755 22.3347 17.433 22.4828C17.2905 22.6308 17.1481 22.8467 17.1481 23.0688C17.1481 23.2909 17.2905 23.5068 17.433 23.6549C17.5755 23.8029 17.7833 23.8769 17.997 23.8769C18.2108 23.8769 18.4186 23.8029 18.561 23.6549C18.7035 23.5068 18.7748 23.2909 18.7748 23.0688C18.7748 22.8467 18.7035 22.6308 18.561 22.4828ZM23.079 19.6204C22.7941 20.4285 22.0935 21.0145 21.2445 20.9405C20.259 20.9405 19.4813 20.0584 19.4813 19.0343C19.5525 18.3002 19.974 17.6401 20.538 17.3502C21.102 17.1281 20.7518 16.3261 20.1878 16.542C19.974 16.6901 19.8375 16.7641 19.6237 16.906V16.98C19.0597 16.2459 18.846 15.2219 19.2022 14.4138C19.2735 14.2657 19.3447 14.1917 19.416 14.0498C19.8375 14.4138 20.3362 14.6358 20.8289 14.7099C20.8289 15.006 20.9002 15.2219 20.9714 15.518C21.1852 16.03 21.957 15.6661 21.7492 15.154C21.6067 14.716 21.6779 14.1978 22.0341 13.9079C22.5269 13.5439 21.9629 12.8098 21.5414 13.1738C21.3276 13.3959 21.1199 13.6118 21.0486 13.9079C20.1996 13.6858 19.5644 13.0998 19.3566 12.3657C19.0716 11.7056 19.2141 10.8975 19.5703 10.3114C19.7128 10.0153 19.9918 9.79938 20.2768 9.65132C20.4905 9.72535 20.8408 9.79938 21.1258 9.79938C21.4108 9.79938 21.761 9.79938 22.046 9.65132C22.61 9.50327 22.331 8.69513 21.8323 8.84319C21.6186 8.91722 21.4108 8.91722 21.1258 8.91722C20.069 8.84319 19.22 7.89317 19.2913 6.78893C19.3625 5.61682 20.2768 4.73466 21.3395 4.80869C22.1173 4.88272 22.7525 5.32071 23.0315 6.05482C22.8178 6.12885 22.61 6.20287 22.4675 6.2769C22.325 6.20287 22.1173 6.05482 21.9748 5.98079C21.482 5.68468 21.0545 6.56684 21.6245 6.78893C21.9095 6.93698 22.1173 7.30095 22.046 7.67109C21.9748 8.25714 22.8237 8.33117 22.895 7.74511C22.9662 7.52303 22.9662 7.30712 22.895 7.08504C22.9662 7.01101 23.1087 6.93698 23.2453 6.93698C23.8805 6.7149 24.587 6.86295 25.0798 7.30095C25.7863 8.10908 25.7863 9.35521 25.0085 10.0893C24.587 10.5273 25.2223 11.1874 25.6438 10.7494C25.7863 10.6013 25.9288 10.4533 25.9941 10.2374C26.7006 10.7494 27.0508 11.4835 27.0508 12.2916C26.9796 13.6118 25.9228 14.5618 24.6523 14.5618C24.0883 14.4878 24.0883 15.3699 24.6523 15.444C25.0738 15.444 25.5013 15.3699 25.8516 15.2219C26.1365 15.6599 26.2019 16.1041 26.2019 16.6161C26.1306 17.8622 25.2163 18.8184 24.0171 18.8184C24.0171 18.5963 23.9458 18.3804 23.8746 18.1583C24.0171 18.0103 24.1596 17.7943 24.2249 17.6463C24.4386 17.1343 23.6609 16.6901 23.4471 17.2823C23.2334 17.6463 22.9544 17.7943 22.5269 17.7203C22.0341 17.7203 21.9629 18.5285 22.4557 18.6025C22.6694 18.6765 22.8772 18.6765 23.0909 18.6025C23.1503 18.9603 23.1503 19.2564 23.079 19.6204ZM18.846 13.3897C18.7035 13.6118 18.561 13.8277 18.4245 14.0498C17.9317 15.2959 18.1395 16.6901 19.0597 17.6401C18.7748 18.0041 18.6382 18.5223 18.6382 18.9603C18.567 20.5025 19.695 21.8227 21.1792 21.8905C21.957 21.8905 22.5922 21.5944 23.085 21.1564C23.5065 20.7925 23.7915 20.2743 23.934 19.6882C25.626 19.6882 26.9677 18.3681 27.039 16.6099C27.1102 15.9498 26.8965 15.3638 26.6174 14.7777C27.3239 14.1917 27.8167 13.3095 27.8879 12.3595C27.8879 11.1874 27.3239 10.0893 26.4037 9.42924C26.8252 7.74511 25.626 6.05482 23.934 5.90676C23.5837 4.80869 22.521 4.00056 21.393 3.92653C19.7722 3.8525 18.5017 5.09863 18.4304 6.7149C18.3592 7.67109 18.7154 8.54708 19.416 9.13313C19.2022 9.35521 18.9944 9.57113 18.8519 9.86724C18.2879 10.6754 18.2167 11.6994 18.5017 12.6556C18.561 12.8777 18.7035 13.1676 18.846 13.3897ZM24.1358 11.4835C24.6998 11.4095 24.6286 10.5273 24.0646 10.6013C23.9221 10.6013 23.8508 10.6013 23.7143 10.6013C23.1503 10.6013 23.079 11.4835 23.643 11.4835C23.8568 11.4835 23.9933 11.4835 24.1358 11.4835ZM12.915 19.6204C13.1288 20.4285 13.8352 21.0145 14.7495 20.9405C15.7351 20.9405 16.5128 20.0584 16.4416 19.0343C16.4416 18.3002 16.02 17.6401 15.3848 17.3502C14.892 17.1281 15.2423 16.3261 15.7351 16.542C15.9488 16.6901 16.1566 16.7641 16.2991 16.906L16.3703 16.98C16.9343 16.2459 17.0768 15.2219 16.7206 14.4138C16.6493 14.2657 16.5781 14.1917 16.5069 14.0498C16.1566 14.4138 15.6579 14.6358 15.1651 14.7099C15.1651 15.006 15.0939 15.2219 15.0226 15.518C14.8089 16.03 13.9659 15.6661 14.1737 15.154C14.3874 14.716 14.2449 14.1978 13.8887 13.9079C13.4672 13.5439 14.0312 12.8098 14.4527 13.1738C14.6664 13.3959 14.803 13.6118 14.9455 13.9079C15.7232 13.6858 16.3584 13.0998 16.6375 12.3657C16.8512 11.7056 16.78 10.8975 16.4237 10.3114C16.21 10.0153 16.0022 9.79938 15.7173 9.65132C15.4323 9.72535 15.1532 9.79938 14.8683 9.79938C14.518 9.79938 14.233 9.79938 13.8827 9.65132C13.39 9.50327 13.5978 8.69513 14.1677 8.84319C14.3814 8.91722 14.5892 8.91722 14.803 8.91722C15.931 8.84319 16.7087 7.89317 16.7087 6.78893C16.6375 5.61682 15.7232 4.73466 14.6605 4.80869C13.8827 4.88272 13.1763 5.32071 12.8972 6.05482H12.9685C13.1822 6.12885 13.39 6.20287 13.5325 6.2769C13.675 6.20287 13.8174 6.05482 14.0252 5.98079C14.518 5.68468 14.8742 6.56684 14.3755 6.78893C14.0252 6.93698 13.8827 7.30095 13.8827 7.67109C13.954 8.25714 13.105 8.33117 13.0338 7.74511C13.0338 7.52303 13.0338 7.30712 13.105 7.08504C12.9625 7.01101 12.82 6.93698 12.6835 6.93698C12.1195 6.7149 11.413 6.86295 10.9202 7.30095C10.1425 8.10908 10.1425 9.35521 10.9202 10.0893C11.3417 10.5273 10.7777 11.1874 10.3562 10.7494C10.2137 10.6013 10.0712 10.4533 9.93469 10.2374C9.29944 10.7494 8.94917 11.4835 8.94917 12.2916C9.02041 13.6118 10.0772 14.5618 11.2764 14.5618C11.8404 14.4878 11.9117 15.3699 11.3477 15.444C10.9262 15.444 10.4987 15.3699 10.1484 15.2219C9.86345 15.6599 9.7269 16.1041 9.79814 16.6161C9.79814 17.8622 10.7837 18.8184 11.9829 18.8184C11.9829 18.5963 12.0542 18.3804 12.1254 18.1583C11.9829 18.0103 11.8404 17.7943 11.7751 17.6463C11.4902 17.1343 12.3391 16.6901 12.5529 17.2823C12.6954 17.6463 13.0456 17.7943 13.4019 17.7203C13.9659 17.7203 14.0371 18.5285 13.4731 18.6025C13.2594 18.6765 13.0516 18.6765 12.9091 18.6025C12.7725 18.9603 12.7725 19.2564 12.915 19.6204ZM17.0768 13.3897C17.2905 13.6118 17.4271 13.8277 17.4983 14.0498C18.0623 15.2959 17.7833 16.6901 16.9343 17.6401C17.1481 18.0041 17.2846 18.5223 17.2846 18.9603C17.3558 20.5025 16.2278 21.8227 14.7436 21.8905C14.0371 21.8905 13.3306 21.5944 12.8378 21.1564C12.4163 20.7925 12.1314 20.2743 11.9889 19.6882C10.3681 19.6882 8.9551 18.3681 8.88386 16.6099C8.88386 15.9498 9.02635 15.3638 9.37662 14.7777C8.59889 14.1917 8.10612 13.3095 8.10612 12.3595C8.03488 11.1874 8.59889 10.0893 9.59035 9.42924C9.16883 7.74511 10.2968 6.05482 12.0601 5.90676C12.4104 4.80869 13.4019 4.00056 14.6011 3.92653C16.1506 3.8525 17.4924 5.09863 17.5636 6.7149C17.6349 7.67109 17.2134 8.54708 16.5069 9.13313C16.7918 9.35521 16.9996 9.57113 17.1421 9.86724C17.6349 10.6754 17.7774 11.6994 17.4271 12.6556C17.3618 12.8777 17.2905 13.1676 17.0768 13.3897ZM11.787 11.4835C11.223 11.4095 11.3655 10.5273 11.9295 10.6013C12.072 10.6013 12.1432 10.6013 12.2798 10.6013C12.8438 10.6013 12.8438 11.4835 12.2798 11.4835C12.1373 11.4835 12.0007 11.4835 11.787 11.4835ZM3.81373 24.6789C3.32096 24.975 2.8282 24.2409 3.32096 23.9448L5.71948 22.1126C6.21224 21.7487 6.70501 22.4766 6.21224 22.8467L3.81373 24.6789ZM32.6731 23.951C33.0946 24.2471 32.6019 24.975 32.1803 24.6851L29.7106 22.8529C29.2891 22.4889 29.7818 21.7548 30.2746 22.1188L32.6731 23.951ZM35.4991 9.79938C36.0631 9.72535 36.2056 10.6075 35.6416 10.6815L32.679 11.1936C32.115 11.2676 31.9725 10.3854 32.5365 10.3114L35.4991 9.79938ZM35.4991 16.6901C36.0631 16.8382 35.9206 17.7142 35.3566 17.5723L32.3941 16.9122C31.8301 16.8382 32.0438 15.956 32.6078 16.1041L35.4991 16.6901ZM32.5306 2.61254C33.0234 2.24857 33.5161 2.97651 33.0234 3.34665L30.5536 5.03077C30.0609 5.39474 29.5681 4.59278 30.0609 4.29667L32.5306 2.61254ZM0.358442 10.6754C-0.205566 10.6013 -0.0630795 9.71918 0.500928 9.79321L3.46345 10.3052C4.02746 10.3793 3.88497 11.2614 3.32096 11.1874L0.358442 10.6754ZM0.637477 17.5723C0.0734697 17.7203 -0.0690165 16.8382 0.423748 16.6901L3.38627 16.1041C3.95028 15.956 4.09276 16.8382 3.52876 16.9122L0.637477 17.5723ZM2.96475 3.34665C2.47199 2.98268 2.96475 2.24857 3.38627 2.61254L5.92727 4.29667C6.06976 4.44472 6.141 4.73466 5.99852 4.88272C5.85603 5.1048 5.64824 5.17883 5.43451 5.03077L2.96475 3.34665Z" fill="#111111"/>
</svg>
