<svg width="22" height="23" viewBox="0 0 22 23" fill="none" xmlns="http://www.w3.org/2000/svg">
<path d="M11.0001 16.1726C13.4547 16.1726 15.4446 14.1777 15.4446 11.717C15.4446 9.2562 13.4547 7.26135 11.0001 7.26135C8.54551 7.26135 6.55566 9.2562 6.55566 11.717C6.55566 14.1777 8.54551 16.1726 11.0001 16.1726Z" stroke="white" stroke-width="1.5" stroke-linecap="round" stroke-linejoin="round"/>
<path d="M1 16.1725V7.26128C1 4.18533 3.48731 1.69177 6.55556 1.69177H15.4444C18.5127 1.69177 21 4.18533 21 7.26128V16.1725C21 19.2484 18.5127 21.742 15.4444 21.742H6.55556C3.48731 21.742 1 19.2484 1 16.1725Z" stroke="white" stroke-width="1.5"/>
<path d="M17.1108 5.60166L17.122 5.58936" stroke="white" stroke-width="1.5" stroke-linecap="round" stroke-linejoin="round"/>
</svg>
