<svg width="9" height="12" viewBox="0 0 9 12" fill="none" xmlns="http://www.w3.org/2000/svg">
<path fill-rule="evenodd" clip-rule="evenodd" d="M7.2038 2.6815C6.90505 2.3594 6.54862 2.10354 6.15534 1.92888C5.76207 1.75422 5.33984 1.66426 4.91334 1.66426C4.48683 1.66426 4.06461 1.75422 3.67133 1.92888C3.27806 2.10354 2.92163 2.3594 2.62288 2.6815C1.35502 4.04029 1.35502 6.2451 2.62288 7.60388L4.91334 10.0579L7.2038 7.60388C8.47166 6.2451 8.47166 4.04029 7.2038 2.6815ZM4.91334 10.6679L4.62487 10.9691L2.04648 8.20639C0.466928 6.51434 0.466928 3.77162 2.04648 2.07843C2.4206 1.67561 2.86679 1.35567 3.359 1.13727C3.85122 0.918876 4.37961 0.806396 4.91334 0.806396C5.44707 0.806396 5.97546 0.918876 6.46768 1.13727C6.95989 1.35567 7.40608 1.67561 7.7802 2.07843C9.35975 3.77162 9.35975 6.51434 7.7802 8.20639L5.20181 10.9685L4.91334 10.6679ZM4.91334 10.6679L5.20181 10.9685C5.16408 11.0089 5.11917 11.0409 5.06968 11.0628C5.02019 11.0847 4.96709 11.096 4.91345 11.096C4.85981 11.0961 4.8067 11.0849 4.75717 11.0631C4.70764 11.0413 4.66267 11.0094 4.62487 10.9691L4.91334 10.6679ZM4.91334 3.95111C4.69843 3.95111 4.49233 4.04145 4.34037 4.20226C4.18841 4.36306 4.10303 4.58116 4.10303 4.80857C4.10303 5.03598 4.18841 5.25408 4.34037 5.41489C4.49233 5.57569 4.69843 5.66603 4.91334 5.66603C5.12824 5.66603 5.33435 5.57569 5.48631 5.41489C5.63827 5.25408 5.72364 5.03598 5.72364 4.80857C5.72364 4.58116 5.63827 4.36306 5.48631 4.20226C5.33435 4.04145 5.12824 3.95111 4.91334 3.95111ZM3.29273 4.80857C3.29273 4.35375 3.46347 3.91755 3.7674 3.59594C4.07132 3.27433 4.48353 3.09366 4.91334 3.09366C5.34315 3.09366 5.75536 3.27433 6.05928 3.59594C6.36321 3.91755 6.53395 4.35375 6.53395 4.80857C6.53395 5.2634 6.36321 5.69959 6.05928 6.0212C5.75536 6.34281 5.34315 6.52349 4.91334 6.52349C4.48353 6.52349 4.07132 6.34281 3.7674 6.0212C3.46347 5.69959 3.29273 5.2634 3.29273 4.80857Z" fill="#FFFCFC"/>
</svg>
