<svg width="11" height="13" viewBox="0 0 11 13" fill="none" xmlns="http://www.w3.org/2000/svg">
<path fill-rule="evenodd" clip-rule="evenodd" d="M0.460938 3.55462C0.460938 2.8215 0.712652 2.11841 1.16071 1.60002C1.60876 1.08163 2.21645 0.790405 2.8501 0.790405C3.08983 0.790405 3.31974 0.900342 3.48903 1.09684L3.4923 1.1L3.54473 1.16255C3.73234 1.38484 3.9191 1.60809 4.10502 1.83228C4.25902 2.01803 4.41575 2.20947 4.53643 2.36174C4.5965 2.43756 4.65002 2.50706 4.69098 2.56266C4.72221 2.60573 4.75173 2.65043 4.77945 2.69661L4.77999 2.69724C4.8011 2.73474 4.81781 2.77532 4.82969 2.81792C4.89194 3.04032 4.89194 3.27914 4.82969 3.50154C4.80522 3.58097 4.76941 3.65508 4.72374 3.72079L4.72265 3.72205C4.68842 3.77268 4.65253 3.82179 4.61507 3.86926C4.53862 3.9672 4.44032 4.08408 4.34366 4.19907L4.32892 4.21676C4.12686 4.45622 3.94065 4.67799 3.85218 4.81384C3.72002 5.01728 3.69217 5.35341 3.75552 5.55686L3.75607 5.55875L3.88549 5.8734C3.84836 5.7881 3.90952 5.93342 3.88549 5.8734C3.96194 6.04778 4.05478 6.24364 4.14052 6.39591C4.53807 7.09976 4.83733 7.43589 5.44896 7.90849C5.60732 8.03106 5.81265 8.15995 5.99505 8.26547C6.10395 8.32792 6.2143 8.38691 6.32598 8.44238L6.32762 8.44364C6.48817 8.5043 6.66292 8.49419 6.81747 8.41458C6.90211 8.37098 7.12492 8.20608 7.38103 8.01211L7.43892 7.96788C7.53722 7.89396 7.63278 7.82067 7.71197 7.76317C7.7548 7.73117 7.79832 7.70041 7.84248 7.67092C7.86289 7.65715 7.88365 7.64409 7.90474 7.63175C7.93922 7.61156 7.97547 7.59568 8.01287 7.58437C8.16385 7.54107 8.32169 7.54107 8.47268 7.58437C8.52778 7.60203 8.58078 7.6275 8.6305 7.66018C8.66763 7.68356 8.71023 7.71199 8.75446 7.74232C8.84293 7.80487 8.95105 7.88385 9.05973 7.96472C9.27598 8.12583 9.50206 8.29959 9.58725 8.36593C9.80358 8.53276 9.98097 8.75879 10.1037 9.02398C10.2264 9.28916 10.2906 9.58529 10.2906 9.88609C10.2906 10.49 10.0833 11.0692 9.71417 11.4962C9.34508 11.9233 8.84448 12.1632 8.3225 12.1632H6.96819C6.30471 12.1632 5.65098 11.9784 5.06232 11.6242C3.2916 10.5588 1.84758 8.88814 0.926755 6.83945C0.620673 6.15838 0.460893 5.40203 0.460938 4.6344V3.55462ZM2.90907 1.76657C2.89335 1.7486 2.8722 1.7384 2.8501 1.73814C2.4337 1.73814 2.03436 1.92951 1.73993 2.27017C1.44549 2.61083 1.28008 3.07286 1.28008 3.55462V4.63503C1.28008 5.24979 1.40841 5.85634 1.65361 6.40223C2.49672 8.27806 3.8189 9.8078 5.44022 10.7833C5.91204 11.0676 6.43629 11.2154 6.96819 11.2154H8.3225C8.62723 11.2154 8.91948 11.0754 9.13495 10.8261C9.35043 10.5768 9.47148 10.2387 9.47148 9.88609C9.47148 9.59229 9.34479 9.31745 9.1329 9.15444C8.96144 9.02183 8.78905 8.89083 8.61575 8.76145C8.51036 8.68247 8.40987 8.60981 8.33178 8.55484C8.30476 8.53597 8.27745 8.51764 8.24987 8.49987H8.23895L8.15048 8.56305C8.0773 8.61676 7.98829 8.685 7.88945 8.75955L7.82992 8.80441C7.60766 8.97374 7.31223 9.1974 7.15004 9.2808C6.80989 9.4557 6.42573 9.47822 6.07205 9.34398C5.92093 9.27643 5.77308 9.19944 5.62917 9.11337C5.41048 8.98912 5.1984 8.84987 4.99406 8.69637C4.29779 8.15932 3.91771 7.73347 3.45517 6.91464C3.27461 6.58443 3.11737 6.23791 2.98498 5.87845C2.83535 5.39827 2.88668 4.72222 3.19741 4.24457C3.31919 4.05755 3.53817 3.79724 3.71729 3.58494L3.75716 3.53756C3.856 3.42004 3.94283 3.31642 4.00727 3.23429C4.02857 3.20712 4.04495 3.185 4.05696 3.16794V3.16352C4.01615 3.10911 3.97464 3.0554 3.93245 3.00241C3.79411 2.82938 3.65449 2.65773 3.5136 2.48747C3.3296 2.26549 3.14466 2.04456 2.95877 1.82469L2.90962 1.76594L2.90907 1.76657Z" fill="#FFFCFC"/>
</svg>
